<svg width="235" height="60" viewBox="0 0 235 60" fill="none" xmlns="http://www.w3.org/2000/svg">
<path d="M64.03 35.5V23.362H73.635V35.5H71.068V25.504H66.597V35.5H64.03ZM87.713 29.414C87.713 30.3547 87.594 31.2103 87.356 31.981C87.1293 32.7403 86.778 33.3977 86.302 33.953C85.8373 34.5083 85.2367 34.9333 84.5 35.228C83.7747 35.5227 82.919 35.67 81.933 35.67C80.947 35.67 80.0857 35.5227 79.349 35.228C78.6237 34.922 78.023 34.497 77.547 33.953C77.0823 33.3977 76.731 32.7347 76.493 31.964C76.2663 31.1933 76.153 30.3377 76.153 29.397C76.153 28.139 76.357 27.0453 76.765 26.116C77.1843 25.1867 77.819 24.467 78.669 23.957C79.5303 23.4357 80.624 23.175 81.95 23.175C83.2647 23.175 84.347 23.4357 85.197 23.957C86.047 24.467 86.676 25.1923 87.084 26.133C87.5033 27.0623 87.713 28.156 87.713 29.414ZM78.856 29.414C78.856 30.264 78.9637 30.995 79.179 31.607C79.3943 32.219 79.7287 32.6893 80.182 33.018C80.6353 33.3467 81.219 33.511 81.933 33.511C82.6697 33.511 83.259 33.3467 83.701 33.018C84.1543 32.6893 84.483 32.219 84.687 31.607C84.9023 30.995 85.01 30.264 85.01 29.414C85.01 28.1333 84.772 27.1303 84.296 26.405C83.82 25.6797 83.038 25.317 81.95 25.317C81.2247 25.317 80.6353 25.4813 80.182 25.81C79.7287 26.1387 79.3943 26.609 79.179 27.221C78.9637 27.833 78.856 28.564 78.856 29.414ZM98.4423 26.201C98.4423 27.017 98.1533 27.6743 97.5753 28.173C96.9973 28.6717 96.2606 28.9833 95.3653 29.108V29.159C96.4759 29.2723 97.3259 29.584 97.9153 30.094C98.5159 30.5927 98.8163 31.2443 98.8163 32.049C98.8163 32.7517 98.6236 33.3807 98.2383 33.936C97.8529 34.48 97.2806 34.905 96.5213 35.211C95.7619 35.517 94.8213 35.67 93.6993 35.67C92.7813 35.67 91.9653 35.6133 91.2513 35.5C90.5486 35.3867 89.9366 35.2223 89.4153 35.007V32.848C89.7666 33.018 90.1633 33.1653 90.6053 33.29C91.0473 33.4033 91.4949 33.494 91.9483 33.562C92.4016 33.6187 92.8209 33.647 93.2063 33.647C94.2829 33.647 95.0593 33.494 95.5353 33.188C96.0226 32.8707 96.2663 32.4287 96.2663 31.862C96.2663 31.284 95.9149 30.8647 95.2123 30.604C94.5096 30.332 93.5633 30.196 92.3733 30.196H91.2343V28.19H92.2543C93.2176 28.19 93.9656 28.1277 94.4983 28.003C95.0309 27.8783 95.4049 27.697 95.6203 27.459C95.8356 27.221 95.9433 26.9377 95.9433 26.609C95.9433 26.1897 95.7563 25.861 95.3823 25.623C95.0196 25.3737 94.4699 25.249 93.7333 25.249C93.1099 25.249 92.5206 25.3397 91.9653 25.521C91.4213 25.7023 90.9113 25.9403 90.4353 26.235L89.3133 24.518C89.7326 24.246 90.1746 24.0137 90.6393 23.821C91.1153 23.617 91.6366 23.464 92.2033 23.362C92.7699 23.2487 93.3989 23.192 94.0903 23.192C95.0083 23.192 95.7903 23.3223 96.4363 23.583C97.0823 23.8437 97.5753 24.2007 97.9153 24.654C98.2666 25.096 98.4423 25.6117 98.4423 26.201ZM104.859 23.362C105.935 23.362 106.836 23.464 107.562 23.668C108.298 23.8607 108.848 24.1837 109.211 24.637C109.585 25.079 109.772 25.6797 109.772 26.439C109.772 26.8923 109.698 27.306 109.551 27.68C109.403 28.054 109.188 28.36 108.905 28.598C108.633 28.836 108.298 28.989 107.902 29.057V29.142C108.31 29.2213 108.678 29.363 109.007 29.567C109.335 29.771 109.596 30.0657 109.789 30.451C109.981 30.8363 110.078 31.3463 110.078 31.981C110.078 32.7177 109.896 33.3523 109.534 33.885C109.182 34.4063 108.672 34.8087 108.004 35.092C107.335 35.364 106.542 35.5 105.624 35.5H101.085V23.362H104.859ZM105.148 28.173C105.896 28.173 106.411 28.054 106.695 27.816C106.989 27.578 107.137 27.2323 107.137 26.779C107.137 26.3143 106.967 25.98 106.627 25.776C106.287 25.572 105.748 25.47 105.012 25.47H103.652V28.173H105.148ZM103.652 30.213V33.375H105.335C106.105 33.375 106.644 33.2277 106.95 32.933C107.256 32.627 107.409 32.2247 107.409 31.726C107.409 31.42 107.341 31.1537 107.205 30.927C107.08 30.7003 106.859 30.5247 106.542 30.4C106.224 30.2753 105.794 30.213 105.25 30.213H103.652ZM123.523 29.414C123.523 30.3547 123.404 31.2103 123.166 31.981C122.939 32.7403 122.588 33.3977 122.112 33.953C121.647 34.5083 121.046 34.9333 120.31 35.228C119.584 35.5227 118.729 35.67 117.743 35.67C116.757 35.67 115.895 35.5227 115.159 35.228C114.433 34.922 113.833 34.497 113.357 33.953C112.892 33.3977 112.541 32.7347 112.303 31.964C112.076 31.1933 111.963 30.3377 111.963 29.397C111.963 28.139 112.167 27.0453 112.575 26.116C112.994 25.1867 113.629 24.467 114.479 23.957C115.34 23.4357 116.434 23.175 117.76 23.175C119.074 23.175 120.157 23.4357 121.007 23.957C121.857 24.467 122.486 25.1923 122.894 26.133C123.313 27.0623 123.523 28.156 123.523 29.414ZM114.666 29.414C114.666 30.264 114.773 30.995 114.989 31.607C115.204 32.219 115.538 32.6893 115.992 33.018C116.445 33.3467 117.029 33.511 117.743 33.511C118.479 33.511 119.069 33.3467 119.511 33.018C119.964 32.6893 120.293 32.219 120.497 31.607C120.712 30.995 120.82 30.264 120.82 29.414C120.82 28.1333 120.582 27.1303 120.106 26.405C119.63 25.6797 118.848 25.317 117.76 25.317C117.034 25.317 116.445 25.4813 115.992 25.81C115.538 26.1387 115.204 26.609 114.989 27.221C114.773 27.833 114.666 28.564 114.666 29.414ZM135.982 35.5H133.415V30.264H128.604V35.5H126.037V23.362H128.604V28.122H133.415V23.362H135.982V35.5ZM139.036 23.362H141.348V29.227C141.348 29.5103 141.342 29.8277 141.331 30.179C141.32 30.5303 141.308 30.876 141.297 31.216C141.286 31.5447 141.274 31.8337 141.263 32.083C141.252 32.321 141.24 32.4853 141.229 32.576H141.28L146.89 23.362H149.967V35.5H147.672V29.669C147.672 29.363 147.678 29.0287 147.689 28.666C147.7 28.292 147.712 27.935 147.723 27.595C147.746 27.255 147.763 26.9603 147.774 26.711C147.797 26.4503 147.814 26.2803 147.825 26.201H147.757L142.13 35.5H139.036V23.362ZM157.706 35.5H155.139V25.504H151.841V23.362H161.004V25.504H157.706V35.5ZM162.876 35.5V23.362H165.443V28.02H166.463C167.607 28.02 168.542 28.1787 169.268 28.496C170.004 28.8133 170.548 29.2497 170.9 29.805C171.251 30.3603 171.427 30.995 171.427 31.709C171.427 32.5023 171.251 33.1823 170.9 33.749C170.548 34.3157 170.004 34.752 169.268 35.058C168.531 35.3527 167.579 35.5 166.412 35.5H162.876ZM166.31 33.392C167.092 33.392 167.704 33.2673 168.146 33.018C168.599 32.7687 168.826 32.3323 168.826 31.709C168.826 31.2783 168.712 30.9497 168.486 30.723C168.27 30.4963 167.959 30.3433 167.551 30.264C167.154 30.1733 166.672 30.128 166.106 30.128H165.443V33.392H166.31Z" fill="white"/>
<path d="M64.03 35.5V23.362H73.635V35.5H71.068V25.504H66.597V35.5H64.03ZM87.713 29.414C87.713 30.3547 87.594 31.2103 87.356 31.981C87.1293 32.7403 86.778 33.3977 86.302 33.953C85.8373 34.5083 85.2367 34.9333 84.5 35.228C83.7747 35.5227 82.919 35.67 81.933 35.67C80.947 35.67 80.0857 35.5227 79.349 35.228C78.6237 34.922 78.023 34.497 77.547 33.953C77.0823 33.3977 76.731 32.7347 76.493 31.964C76.2663 31.1933 76.153 30.3377 76.153 29.397C76.153 28.139 76.357 27.0453 76.765 26.116C77.1843 25.1867 77.819 24.467 78.669 23.957C79.5303 23.4357 80.624 23.175 81.95 23.175C83.2647 23.175 84.347 23.4357 85.197 23.957C86.047 24.467 86.676 25.1923 87.084 26.133C87.5033 27.0623 87.713 28.156 87.713 29.414ZM78.856 29.414C78.856 30.264 78.9637 30.995 79.179 31.607C79.3943 32.219 79.7287 32.6893 80.182 33.018C80.6353 33.3467 81.219 33.511 81.933 33.511C82.6697 33.511 83.259 33.3467 83.701 33.018C84.1543 32.6893 84.483 32.219 84.687 31.607C84.9023 30.995 85.01 30.264 85.01 29.414C85.01 28.1333 84.772 27.1303 84.296 26.405C83.82 25.6797 83.038 25.317 81.95 25.317C81.2247 25.317 80.6353 25.4813 80.182 25.81C79.7287 26.1387 79.3943 26.609 79.179 27.221C78.9637 27.833 78.856 28.564 78.856 29.414ZM98.4423 26.201C98.4423 27.017 98.1533 27.6743 97.5753 28.173C96.9973 28.6717 96.2606 28.9833 95.3653 29.108V29.159C96.4759 29.2723 97.3259 29.584 97.9153 30.094C98.5159 30.5927 98.8163 31.2443 98.8163 32.049C98.8163 32.7517 98.6236 33.3807 98.2383 33.936C97.8529 34.48 97.2806 34.905 96.5213 35.211C95.7619 35.517 94.8213 35.67 93.6993 35.67C92.7813 35.67 91.9653 35.6133 91.2513 35.5C90.5486 35.3867 89.9366 35.2223 89.4153 35.007V32.848C89.7666 33.018 90.1633 33.1653 90.6053 33.29C91.0473 33.4033 91.4949 33.494 91.9483 33.562C92.4016 33.6187 92.8209 33.647 93.2063 33.647C94.2829 33.647 95.0593 33.494 95.5353 33.188C96.0226 32.8707 96.2663 32.4287 96.2663 31.862C96.2663 31.284 95.9149 30.8647 95.2123 30.604C94.5096 30.332 93.5633 30.196 92.3733 30.196H91.2343V28.19H92.2543C93.2176 28.19 93.9656 28.1277 94.4983 28.003C95.0309 27.8783 95.4049 27.697 95.6203 27.459C95.8356 27.221 95.9433 26.9377 95.9433 26.609C95.9433 26.1897 95.7563 25.861 95.3823 25.623C95.0196 25.3737 94.4699 25.249 93.7333 25.249C93.1099 25.249 92.5206 25.3397 91.9653 25.521C91.4213 25.7023 90.9113 25.9403 90.4353 26.235L89.3133 24.518C89.7326 24.246 90.1746 24.0137 90.6393 23.821C91.1153 23.617 91.6366 23.464 92.2033 23.362C92.7699 23.2487 93.3989 23.192 94.0903 23.192C95.0083 23.192 95.7903 23.3223 96.4363 23.583C97.0823 23.8437 97.5753 24.2007 97.9153 24.654C98.2666 25.096 98.4423 25.6117 98.4423 26.201ZM104.859 23.362C105.935 23.362 106.836 23.464 107.562 23.668C108.298 23.8607 108.848 24.1837 109.211 24.637C109.585 25.079 109.772 25.6797 109.772 26.439C109.772 26.8923 109.698 27.306 109.551 27.68C109.403 28.054 109.188 28.36 108.905 28.598C108.633 28.836 108.298 28.989 107.902 29.057V29.142C108.31 29.2213 108.678 29.363 109.007 29.567C109.335 29.771 109.596 30.0657 109.789 30.451C109.981 30.8363 110.078 31.3463 110.078 31.981C110.078 32.7177 109.896 33.3523 109.534 33.885C109.182 34.4063 108.672 34.8087 108.004 35.092C107.335 35.364 106.542 35.5 105.624 35.5H101.085V23.362H104.859ZM105.148 28.173C105.896 28.173 106.411 28.054 106.695 27.816C106.989 27.578 107.137 27.2323 107.137 26.779C107.137 26.3143 106.967 25.98 106.627 25.776C106.287 25.572 105.748 25.47 105.012 25.47H103.652V28.173H105.148ZM103.652 30.213V33.375H105.335C106.105 33.375 106.644 33.2277 106.95 32.933C107.256 32.627 107.409 32.2247 107.409 31.726C107.409 31.42 107.341 31.1537 107.205 30.927C107.08 30.7003 106.859 30.5247 106.542 30.4C106.224 30.2753 105.794 30.213 105.25 30.213H103.652ZM123.523 29.414C123.523 30.3547 123.404 31.2103 123.166 31.981C122.939 32.7403 122.588 33.3977 122.112 33.953C121.647 34.5083 121.046 34.9333 120.31 35.228C119.584 35.5227 118.729 35.67 117.743 35.67C116.757 35.67 115.895 35.5227 115.159 35.228C114.433 34.922 113.833 34.497 113.357 33.953C112.892 33.3977 112.541 32.7347 112.303 31.964C112.076 31.1933 111.963 30.3377 111.963 29.397C111.963 28.139 112.167 27.0453 112.575 26.116C112.994 25.1867 113.629 24.467 114.479 23.957C115.34 23.4357 116.434 23.175 117.76 23.175C119.074 23.175 120.157 23.4357 121.007 23.957C121.857 24.467 122.486 25.1923 122.894 26.133C123.313 27.0623 123.523 28.156 123.523 29.414ZM114.666 29.414C114.666 30.264 114.773 30.995 114.989 31.607C115.204 32.219 115.538 32.6893 115.992 33.018C116.445 33.3467 117.029 33.511 117.743 33.511C118.479 33.511 119.069 33.3467 119.511 33.018C119.964 32.6893 120.293 32.219 120.497 31.607C120.712 30.995 120.82 30.264 120.82 29.414C120.82 28.1333 120.582 27.1303 120.106 26.405C119.63 25.6797 118.848 25.317 117.76 25.317C117.034 25.317 116.445 25.4813 115.992 25.81C115.538 26.1387 115.204 26.609 114.989 27.221C114.773 27.833 114.666 28.564 114.666 29.414ZM135.982 35.5H133.415V30.264H128.604V35.5H126.037V23.362H128.604V28.122H133.415V23.362H135.982V35.5ZM139.036 23.362H141.348V29.227C141.348 29.5103 141.342 29.8277 141.331 30.179C141.32 30.5303 141.308 30.876 141.297 31.216C141.286 31.5447 141.274 31.8337 141.263 32.083C141.252 32.321 141.24 32.4853 141.229 32.576H141.28L146.89 23.362H149.967V35.5H147.672V29.669C147.672 29.363 147.678 29.0287 147.689 28.666C147.7 28.292 147.712 27.935 147.723 27.595C147.746 27.255 147.763 26.9603 147.774 26.711C147.797 26.4503 147.814 26.2803 147.825 26.201H147.757L142.13 35.5H139.036V23.362ZM157.706 35.5H155.139V25.504H151.841V23.362H161.004V25.504H157.706V35.5ZM162.876 35.5V23.362H165.443V28.02H166.463C167.607 28.02 168.542 28.1787 169.268 28.496C170.004 28.8133 170.548 29.2497 170.9 29.805C171.251 30.3603 171.427 30.995 171.427 31.709C171.427 32.5023 171.251 33.1823 170.9 33.749C170.548 34.3157 170.004 34.752 169.268 35.058C168.531 35.3527 167.579 35.5 166.412 35.5H162.876ZM166.31 33.392C167.092 33.392 167.704 33.2673 168.146 33.018C168.599 32.7687 168.826 32.3323 168.826 31.709C168.826 31.2783 168.712 30.9497 168.486 30.723C168.27 30.4963 167.959 30.3433 167.551 30.264C167.154 30.1733 166.672 30.128 166.106 30.128H165.443V33.392H166.31Z" fill="url(#paint0_linear_0_322)"/>
<rect x="3" y="3" width="229" height="54" rx="17" stroke="black" stroke-width="6"/>
<rect x="3" y="3" width="229" height="54" rx="17" stroke="url(#paint1_linear_0_322)" stroke-width="6"/>
<defs>
<linearGradient id="paint0_linear_0_322" x1="44.9194" y1="48.5905" x2="46.7742" y2="10.4442" gradientUnits="userSpaceOnUse">
<stop stop-color="#F6E188"/>
<stop offset="0.25" stop-color="#A56A28"/>
<stop offset="0.41" stop-color="#E2AC54"/>
<stop offset="0.6" stop-color="#F2DA82"/>
<stop offset="0.78" stop-color="#BB772C"/>
<stop offset="1" stop-color="#EDA948"/>
</linearGradient>
<linearGradient id="paint1_linear_0_322" x1="-37.5586" y1="74.6172" x2="-32.5607" y2="-16.8775" gradientUnits="userSpaceOnUse">
<stop stop-color="#F6E188"/>
<stop offset="0.25" stop-color="#A56A28"/>
<stop offset="0.41" stop-color="#E2AC54"/>
<stop offset="0.6" stop-color="#F2DA82"/>
<stop offset="0.78" stop-color="#BB772C"/>
<stop offset="1" stop-color="#EDA948"/>
</linearGradient>
</defs>
</svg>
